<svg xmlns="http://www.w3.org/2000/svg" xmlns:xlink="http://www.w3.org/1999/xlink" version="1.1" x="0px" y="0px" viewBox="0 0 100 100" style="enable-background:new 0 0 100 100;" xml:space="preserve"><path d="M93.75,5.25H6.25c-0.552,0-1,0.448-1,1v50V60v25v8.75c0,0.552,0.448,1,1,1H22.5c0.552,0,1-0.448,1-1V87.5  c0-0.265-0.105-0.52-0.293-0.707L21,84.586V60.414l3.457-3.457c0.286-0.286,0.372-0.716,0.217-1.09  c-0.155-0.374-0.52-0.617-0.924-0.617h-2.714c0.084-2.424,0.454-4.833,1.139-7.171c0.777-2.649,1.932-5.174,3.433-7.504  c1.497-2.324,3.316-4.422,5.407-6.236c2.093-1.815,4.428-3.318,6.939-4.467c2.214-1.013,4.545-1.722,6.934-2.147l0.031,0.212  c0.071,0.493,0.493,0.858,0.99,0.858h8.183c0.497,0,0.919-0.365,0.99-0.858l0.031-0.212c2.39,0.426,4.721,1.134,6.934,2.147  c2.512,1.149,4.846,2.652,6.939,4.467c2.091,1.814,3.911,3.912,5.407,6.236c1.5,2.33,2.655,4.855,3.433,7.504  c0.685,2.338,1.055,4.746,1.139,7.171H76.25c-0.404,0-0.769,0.244-0.924,0.617c-0.155,0.374-0.069,0.804,0.217,1.09L79,60.414  v24.172l-2.207,2.207C76.605,86.98,76.5,87.235,76.5,87.5v6.25c0,0.552,0.448,1,1,1h16.25c0.552,0,1-0.448,1-1V85V60v-3.75v-50  C94.75,5.698,94.302,5.25,93.75,5.25z M92.75,92.75H78.5v-4.836L80.414,86H92.75V92.75z M81,78.25V73h11.75v5.25H81z M84.5,72H81  v-5.25h3.5V72z M92.75,72H85.5v-5.25h7.25V72z M81,79.25h3.5V84H81V79.25z M85.5,79.25h7.25V84H85.5V79.25z M92.75,65.75H81V61  h11.75V65.75z M76.603,40.342l6.731-4.326c1.588,2.611,2.841,5.398,3.773,8.296l-7.675,2.253  C78.718,44.396,77.78,42.306,76.603,40.342z M63.78,28.483l3.325-7.28c2.735,1.337,5.294,3.008,7.651,4.95l-5.237,6.043  C67.743,30.753,65.825,29.5,63.78,28.483z M30.481,32.196l-5.237-6.043c2.357-1.942,4.916-3.612,7.651-4.95l3.325,7.28  C34.175,29.5,32.257,30.753,30.481,32.196z M20.568,46.566l-7.675-2.253c0.932-2.898,2.185-5.686,3.773-8.296l6.731,4.326  C22.22,42.306,21.282,44.396,20.568,46.566z M17.939,30.75H15H7.25V25.5H15h4.5v3.395C18.96,29.496,18.443,30.117,17.939,30.75z   M19.032,55.25h-7.999c0.078-3.045,0.494-6.073,1.279-9.024l7.679,2.254C19.416,50.697,19.106,52.967,19.032,55.25z M83.75,13h4.5  v5.25h-4.5H75.5V13H83.75z M84.25,19.25h4.5h4v5.25h-4h-4.5V19.25z M89.25,25.5h3.5v5.25h-3.5V25.5z M92.75,18.25h-3.5V13h3.5V18.25  z M69.5,19.25v0.945c-0.617-0.335-1.249-0.642-1.884-0.945H69.5z M70.5,19.25H75h8.25v5.25h-7.365  c-1.697-1.385-3.496-2.631-5.385-3.725V19.25z M89.25,38h3.5v5.25h-3.5V38z M89.339,44.7c-0.044-0.152-0.103-0.299-0.15-0.45h3.561  v5.25h-2.333C90.147,47.884,89.802,46.279,89.339,44.7z M88.25,38v3.525c-0.462-1.2-0.993-2.372-1.568-3.525H88.25z M90.964,55.25  c-0.039-1.59-0.15-3.177-0.373-4.75h2.159v4.75H90.964z M28.75,13h4.5v5.25h-4.5H20.5V13H28.75z M14.5,24.5H7.25v-5.25h7.25V24.5z   M20,24.5h-4.5v-5.25H20h8.25v2.268c-1.439,0.903-2.814,1.904-4.135,2.982H20z M29.25,19.25h3.134  c-1.071,0.51-2.113,1.073-3.134,1.674V19.25z M15,13h4.5v5.25H15H7.25V13H15z M10.661,44.7c-0.463,1.579-0.808,3.184-1.078,4.8H7.25  v-5.25h3.561C10.764,44.401,10.706,44.548,10.661,44.7z M14.5,35.793c-0.231,0.4-0.464,0.799-0.681,1.207H7.25v-5.25h7.25V35.793z   M13.318,38c-0.847,1.698-1.573,3.451-2.174,5.25H7.25V38H13.318z M7.25,50.5h2.159c-0.223,1.573-0.334,3.16-0.373,4.75H7.25V50.5z   M15.515,34.086c-0.005,0.008-0.009,0.017-0.015,0.025V31.75h1.64C16.573,32.51,16.029,33.288,15.515,34.086z M20.5,25.5h2.413  c-0.839,0.74-1.639,1.518-2.413,2.321V25.5z M34.25,18.25V13h8.25H47v1.423h-2.87c-0.29,0-0.566,0.126-0.756,0.345  s-0.275,0.51-0.234,0.797l0.04,0.281c-2.915,0.489-5.763,1.294-8.508,2.403H34.25z M56.626,14.769  c-0.19-0.219-0.466-0.345-0.756-0.345H48V13h8.25h4.5v3.706c-1.295-0.352-2.606-0.637-3.931-0.859l0.04-0.281  C56.901,15.279,56.816,14.988,56.626,14.769z M61.75,16.977V13H70h4.5v5.25H70h-4.673C64.151,17.775,62.962,17.339,61.75,16.977z   M77.087,25.5h6.663h4.5v5.25h-6.189C80.558,28.863,78.902,27.1,77.087,25.5z M88.75,31.75h4V37h-4h-2.569  c-0.528-0.99-1.086-1.966-1.696-2.914c-0.514-0.799-1.058-1.577-1.625-2.336H88.75z M80.01,48.48l7.679-2.254  c0.785,2.951,1.2,5.979,1.279,9.024h-7.999C80.894,52.967,80.584,50.697,80.01,48.48z M92.75,7.25V12h-4h-4.5V7.25H92.75z   M83.25,7.25V12H75h-4.5V7.25H83.25z M69.5,7.25V12h-8.25h-4.5V7.25H69.5z M55.75,7.25V12H47.5H43V7.25H55.75z M42,7.25V12h-8.25  h-4.5V7.25H42z M28.25,7.25V12H20h-4.5V7.25H28.25z M14.5,12H7.25V7.25h7.25V12z M45.284,16.423h9.432l-1.491,10.371h-6.449  L45.284,16.423z M7.25,78.25V73H19v5.25H7.25z M14.5,72H7.25v-5.25h7.25V72z M19,72h-3.5v-5.25H19V72z M7.25,79.25h7.25V84H7.25  V79.25z M15.5,84v-4.75H19V84H15.5z M19,65.75H7.25V61H19V65.75z M21.5,92.75H7.25V86h12.336l1.914,1.914V92.75z M19.586,59H7.25  v-1.75h14.086L19.586,59z M24.493,38.669l-6.728-4.323c1.715-2.519,3.702-4.84,5.955-6.897l5.239,6.046  C27.28,35.048,25.792,36.789,24.493,38.669z M38.045,27.666l-3.323-7.276c2.809-1.198,5.736-2.078,8.739-2.586l0.414,2.878  l0.725,5.043C42.35,26.121,40.156,26.781,38.045,27.666z M56.124,20.682l0.414-2.878c3.004,0.508,5.931,1.387,8.739,2.586  l-3.323,7.276c-2.111-0.884-4.304-1.545-6.556-1.941L56.124,20.682z M76.28,27.449c2.253,2.057,4.24,4.378,5.955,6.897l-6.728,4.323  c-1.298-1.88-2.787-3.62-4.466-5.174L76.28,27.449z M92.75,57.25V59H80.414l-1.75-1.75H92.75z" style="fill:white;"></path></svg>