<svg xmlns="http://www.w3.org/2000/svg" xmlns:xlink="http://www.w3.org/1999/xlink" version="1.1" x="0px" y="0px" viewBox="0 0 100 100" enable-background="new 0 0 100 100" xml:space="preserve"><path d="M5,64.992c0,0,9.744-27.886,16.738-34.255c6.994-6.382,9.724-6.536,13.852-5.104c4.128,1.438,7.208,1.151,8.975-2.669  c1.766-3.813,9.024-7.339,16.478-5.011c7.449,2.328,31.219,11.527,33.028,14.243c1.812,2.716-21.793,3.586-26.265,2.281  c-4.482-1.311-13.076,1.853-15.203,5.486c-2.205,3.452-9.553,6.476-14.149,4.047c-5.125-0.642-12.834,5.151-13.196,7.392  C24.899,53.652,5,64.992,5,64.992z M39.132,82.733c4.623,0.622,15.651-3.76,16.618-5.171c0.97-1.412,4.147-3.318,7.7-3.145  c3.556,0.167,9.888-2.91,9.888-2.91C87.902,66.999,95,36.819,95,36.819c-27.854,0.435-36.905,11.473-36.905,11.473  s-5.061,9.153-13.818,5.722c-15.725-2.872-37.18,15.273-37.18,15.273C12.891,74.123,34.52,82.104,39.132,82.733z" style="fill:white;"></path></svg>