<svg xmlns="http://www.w3.org/2000/svg" xmlns:xlink="http://www.w3.org/1999/xlink" version="1.1" x="0px" y="0px" viewBox="0 0 90 90" enable-background="new 0 0 90 90" xml:space="preserve"><path d="M39.146,16.135c0,4.006-3.24,7.242-7.249,7.242c-3.997,0-7.241-3.236-7.241-7.242c0-4.01,3.244-7.246,7.241-7.246  C35.905,8.889,39.146,12.125,39.146,16.135z" style="fill:white;"></path><path d="M37.331,44.313c2.133-4.033,3.863-9.1,3.863-11.899c0-5.145-4.156-5.729-9.297-5.729c-5.133,0-9.302,0.584-9.302,5.729  c0,2.8,1.735,7.866,3.874,11.899C15.191,48.611,6.751,66.015,6.751,86.833h50.285C57.036,66.015,48.596,48.611,37.331,44.313z" style="fill:white;"></path><path d="M76.047,11.127c0,4.391-3.563,7.949-7.952,7.949c-4.388,0-7.958-3.558-7.958-7.949c0-4.393,3.57-7.95,7.958-7.95  C72.484,3.177,76.047,6.734,76.047,11.127z" style="fill:white;"></path><path d="M80.571,22.743h-6.387l-6.09,13.067l-6.093-13.067h-6.38c-1.485,0-2.678,1.036-2.678,2.298c0,0.115,0.003,0.221,0.021,0.339  l0.108,0.551l6.328,29.882v31.02h17.376v-31.02l6.39-30.147l0.059-0.286c0.016-0.119,0.023-0.225,0.023-0.339  C83.249,23.778,82.047,22.743,80.571,22.743z" style="fill:white;"></path></svg>