<svg xmlns="http://www.w3.org/2000/svg" xmlns:xlink="http://www.w3.org/1999/xlink" version="1.1" x="0px" y="0px" viewBox="0 0 90 90" enable-background="new 0 0 90 90" xml:space="preserve"><path d="M45,31.253c-12.684,0-23.002,10.318-23.002,23.003c0,12.682,10.318,23,23.002,23s23.002-10.318,23.002-23  C68.002,41.571,57.684,31.253,45,31.253z M45,74.16c-10.977,0-19.908-8.93-19.908-19.904c0-10.978,8.931-19.909,19.908-19.909  c10.978,0,19.907,8.931,19.907,19.909C64.907,65.23,55.978,74.16,45,74.16z" style="fill:white;"></path><path d="M54.004,22.83l8.099-8.485c0.739-0.776,0.878-1.945,0.34-2.872l-4.195-7.23c-0.433-0.743-1.225-1.199-2.082-1.199H33.836  c-0.858,0-1.652,0.458-2.083,1.199l-4.195,7.23c-0.538,0.926-0.399,2.096,0.341,2.872l8.097,8.485  c-13.667,3.918-23.7,16.516-23.7,31.426c0,18.031,14.67,32.701,32.703,32.701c18.032,0,32.703-14.67,32.703-32.701  C77.703,39.345,67.669,26.75,54.004,22.83z M45.302,6.643l4.065,5.353h-7.861L45.302,6.643z M40.12,11.573l-4.769-5.435h8.622  L40.12,11.573z M50.742,11.533l-4.099-5.395h8.054L50.742,11.533z M33.95,6.624l4.711,5.372h-7.828L33.95,6.624z M50.015,13.369  l-4.942,13.249l-3.972-13.249H50.015z M56.048,6.619l3.119,5.376h-7.061L56.048,6.619z M31.247,13.369h8.418l3.854,12.859  L31.247,13.369z M51.482,13.369h7.273l-11.941,12.51L51.482,13.369z M45,83.863c-16.326,0-29.608-13.281-29.608-29.607  c0-14.788,10.912-27.026,25.096-29.213l4.016,4.207c0.017,0.017,0.039,0.024,0.057,0.04c0.022,0.019,0.044,0.031,0.068,0.047  c0.097,0.064,0.202,0.105,0.319,0.114c0.011,0.001,0.018,0.011,0.029,0.011c0.009,0,0.016,0,0.022,0  c0.126,0,0.243-0.046,0.349-0.108c0.026-0.016,0.048-0.031,0.071-0.05c0.025-0.019,0.055-0.03,0.077-0.054l4.016-4.207  c14.184,2.187,25.095,14.425,25.095,29.213C74.607,70.582,61.326,83.863,45,83.863z" style="fill:white;"></path></svg>