<svg xmlns="http://www.w3.org/2000/svg" xmlns:xlink="http://www.w3.org/1999/xlink" version="1.1" x="0px" y="0px" viewBox="0 0 5 5" enable-background="new 0 0 5 5" xml:space="preserve"><path d="M3.283,1.483l0.681-1.115L3.285,0.007H1.714L1.037,0.368l0.68,1.115c-0.666,0.286-1.13,0.928-1.13,1.675  c0,1.014,0.856,1.835,1.913,1.835s1.913-0.821,1.913-1.835C4.413,2.411,3.949,1.77,3.283,1.483z M2.5,1.752  c0.699,0,1.283,0.469,1.43,1.096c0.024,0.101,0.036,0.203,0.036,0.311c0,0.776-0.656,1.406-1.466,1.406s-1.466-0.63-1.466-1.406  c0-0.107,0.013-0.21,0.036-0.311C1.217,2.221,1.801,1.752,2.5,1.752z" style="fill:white;"></path></svg>