<svg xmlns="http://www.w3.org/2000/svg" xmlns:xlink="http://www.w3.org/1999/xlink" version="1.1" x="0px" y="0px" viewBox="0 0 100 100" enable-background="new 0 0 100 100" xml:space="preserve"><path d="M12.4,50L23,61.3l-6.1-10.9h32.8l1.8,2l1.8-2h19.8l5.8,6.2l0.6-0.7l-5.2-5.6h1.4l5.8,6.2l0.6-0.7l-5.2-5.6h1.4l5.8,6.2  l0.6-0.7l-5.2-5.6h1.4l5.8,6.2l0.6-0.7l-5.7-6.2l5.5-5.9l-0.6-0.7l-5.8,6.2h-1.4l5.2-5.6l-0.6-0.7l-5.8,6.2h-1.4l5.2-5.6l-0.6-0.7  l-5.8,6.2h-1.4l5.2-5.6l-0.6-0.7L73,49.5H53.4l-1.8-2l-1.8,2H16.9L23,38.7L12.4,50z M18.5,55.2l-4.4-4.8h1.8L18.5,55.2z M14.1,49.5  l4.4-4.8l-2.7,4.8H14.1z" style="fill:#ACC1D6;"></path></svg>