<svg xmlns="http://www.w3.org/2000/svg" xmlns:xlink="http://www.w3.org/1999/xlink" version="1.1" x="0px" y="0px" viewBox="0 0 100 100" enable-background="new 0 0 100 100" xml:space="preserve"><path d="M87.6,50L77,38.7l6.1,10.9H50.2l-1.8-2l-1.8,2H26.8L21,43.3L20.4,44l5.2,5.6h-1.4l-5.8-6.2L17.7,44l5.2,5.6h-1.4l-5.8-6.2  L15.1,44l5.2,5.6h-1.4L13,43.3L12.4,44l5.7,6.2L12.6,56l0.6,0.7l5.8-6.2h1.4L15.3,56l0.6,0.7l5.8-6.2h1.4L17.9,56l0.6,0.7l5.8-6.2  h1.4L20.6,56l0.6,0.7l5.8-6.2h19.6l1.8,2l1.8-2h32.8L77,61.3L87.6,50z M81.5,44.8l4.4,4.8h-1.8L81.5,44.8z M85.9,50.5l-4.4,4.8  l2.7-4.8H85.9z" style="fill:#ACC1D6;"></path></svg>