<svg xmlns="http://www.w3.org/2000/svg" xmlns:xlink="http://www.w3.org/1999/xlink" version="1.1" x="0px" y="0px" viewBox="0 0 100 100" enable-background="new 0 0 100 100" xml:space="preserve"><g><g><rect x="39.935" y="67.168" transform="matrix(0.9643 -0.265 0.265 0.9643 -16.4272 13.9982)" width="7.463" height="1.427"></rect></g><g><rect x="42.906" y="27.429" transform="matrix(0.6522 0.7581 -0.7581 0.6522 37.5596 -25.569)" width="7.472" height="1.429"></rect></g><g><rect x="12.89" y="45.844" transform="matrix(0.972 -0.235 0.235 0.972 -10.4748 5.2104)" width="7.472" height="1.429"></rect></g><g><rect x="19.393" y="35.439" transform="matrix(0.6522 0.7581 -0.7581 0.6522 35.3747 -4.7905)" width="7.03" height="1.427"></rect></g><g><rect x="22.908" y="77.504" width="7.473" height="1.428"></rect></g><g><rect x="59.271" y="33.717" transform="matrix(0.4233 -0.906 0.906 0.4233 5.1401 76.9384)" width="7.47" height="1.429"></rect></g><g><rect x="80.226" y="42.768" transform="matrix(0.7291 0.6844 -0.6844 0.7291 52.5036 -45.6848)" width="7.471" height="1.427"></rect></g><g><rect x="59.273" y="65.622" transform="matrix(0.8845 0.4665 -0.4665 0.8845 38.218 -21.7313)" width="7.468" height="1.428"></rect></g><g><rect x="66.705" y="53.462" transform="matrix(-0.9721 0.2344 -0.2344 -0.9721 151.6215 90.3297)" width="7.474" height="1.428"></rect></g><g><rect x="77.014" y="61.837" transform="matrix(0.2815 0.9596 -0.9596 0.2815 118.0382 -32.5428)" width="7.472" height="1.427"></rect></g><g><rect x="68.442" y="29.932" transform="matrix(0.2812 0.9596 -0.9596 0.2812 81.2873 -47.239)" width="7.473" height="1.427"></rect></g><g><rect x="48.787" y="48.947" transform="matrix(0.2814 0.9596 -0.9596 0.2814 85.3981 -14.7132)" width="7.471" height="1.427"></rect></g><g><rect x="68.443" y="77.503" transform="matrix(0.7856 -0.6188 0.6188 0.7856 -32.9216 61.4352)" width="7.471" height="1.428"></rect></g><g><rect x="36.746" y="47.417" transform="matrix(0.7186 0.6954 -0.6954 0.7186 44.8594 -14.6088)" width="7.473" height="1.428"></rect></g><g><rect x="23.977" y="26.145" transform="matrix(-0.0956 0.9954 -0.9954 -0.0956 57.0978 1.842)" width="7.471" height="1.428"></rect></g><g><rect x="55.634" y="77.504" transform="matrix(0.7187 0.6953 -0.6953 0.7187 71.0867 -19.2794)" width="7.473" height="1.428"></rect></g><g><rect x="24.992" y="63.248" transform="matrix(-0.0812 0.9967 -0.9967 -0.0812 94.8126 40.5249)" width="7.472" height="1.429"></rect></g><g><rect x="52.455" y="18.671" width="7.469" height="1.429"></rect></g></g></svg>